# xmcd
#
# Track frame offsets: 
#        150
#        15970
#        42385
#        61900
#        86457
#        105755
#        126622
#        146557
#        168572
#        189907
#
# Disc length: 2858 seconds
#
# Revision: 0
# Processed by: cddbd v1.5.2PL0 Copyright (c) Steve Scherf et al.
# Submitted via: ExactAudioCopyFreeDBPlugin 1.0
#
DISCID=7a0b280a
DTITLE=dream - dream Meets Best Hits avex
DYEAR=2004
DGENRE=JPop
TTITLE0=Bomb A Head!
TTITLE1=寒い夜だから…
TTITLE2=夢見る少女じゃいられない
TTITLE3=Can't Stop Fallin' in Love
TTITLE4=ILE AIYE ~WAになっておどろう~
TTITLE5=ESCAPE
TTITLE6=Oasis
TTITLE7=M
TTITLE8=Every Heart -ミンナノキモチ-
TTITLE9=I love dream world
EXTD=
EXTT0=
EXTT1=
EXTT2=
EXTT3=
EXTT4=
EXTT5=
EXTT6=
EXTT7=
EXTT8=
EXTT9=
PLAYORDER=
